<svg width="150" height="30" viewBox="0 0 150 30" fill="none" xmlns="http://www.w3.org/2000/svg">
<path d="M2 1.59998V12.7H13.1V23.9H24V1.59998H2Z" fill="#0C9AFC"/>
<path d="M27.5 8.4C26.6 8.4 26.6 7 27.5 7H29C29.3 7 29.6 7.2 29.6 7.5V22.4H30.2C31.1 22.4 31.1 23.8 30.2 23.8H27.5C26.6 23.8 26.6 22.4 27.5 22.4H28.1V8.4H27.5Z" fill="#0C293D"/>
<path d="M37.2999 24C33.8999 24 31.3999 21.4 31.3999 18.1C31.3999 14.9 33.8999 12.2 37.0999 12.2C40.1999 12.2 42.1999 14.8 42.2999 18C42.2999 18.4 42.0999 18.8 41.5999 18.8H32.7999C33.1999 21 35.0999 22.6 37.2999 22.6C38.0999 22.6 39.2999 22.4 39.9999 22C40.4999 21.7 40.7999 22 40.9999 22.2C41.1999 22.5 41.0999 22.9 40.6999 23.2C39.6999 23.7 38.2999 24 37.2999 24ZM32.7999 17.4H40.7999C40.3999 15.2 39.1999 13.5 36.9999 13.5C34.8999 13.5 33.0999 15.3 32.7999 17.4Z" fill="#0C293D"/>
<path d="M53.0999 23.9C52.7999 23.9 52.5999 23.7 52.5999 23.4V22C51.6999 23.3 50.0999 24.1 48.3999 24.1C45.0999 24.1 42.5999 21.4 42.5999 18.2C42.5999 15 45.0999 12.4 48.1999 12.4C51.2999 12.4 52.4999 14.7 52.4999 14.7V13C52.4999 12.7 52.6999 12.4 52.9999 12.4H54.1999C55.0999 12.4 55.0999 13.8 54.1999 13.8H53.8999V22.6H54.1999C55.0999 22.6 55.0999 24 54.1999 24H53.0999V23.9ZM48.2999 13.6C45.8999 13.6 43.9999 15.6 43.9999 18C43.9999 20.4 45.5999 22.5 48.2999 22.5C49.6999 22.5 52.5999 21.4 52.5999 18.1C52.5999 15.8 50.7999 13.6 48.2999 13.6Z" fill="#0C293D"/>
<path d="M66.0999 23.9C65.7999 23.9 65.5999 23.7 65.5999 23.4V22C64.6999 23.3 63.0999 24.1 61.3999 24.1C58.0999 24.1 55.5999 21.4 55.5999 18.2C55.5999 15 58.0999 12.4 61.1999 12.4C64.2999 12.4 65.4999 14.7 65.4999 14.7V8.4H65.1999C64.2999 8.4 64.2999 7 65.1999 7H66.3999C66.6999 7 66.8999 7.2 66.8999 7.6V22.5H67.1999C68.0999 22.5 68.0999 23.9 67.1999 23.9H66.0999ZM61.2999 13.6C58.8999 13.6 56.9999 15.6 56.9999 18C56.9999 20.4 58.5999 22.5 61.2999 22.5C62.6999 22.5 65.4999 21.4 65.4999 18.1C65.4999 15.8 63.7999 13.6 61.2999 13.6Z" fill="#0C293D"/>
<path d="M76.3999 12.2C76.6999 12.2 77.0999 12.4 77.0999 12.8V15.4C77.0999 15.8 76.7999 16 76.3999 16C75.9999 16 75.6999 15.7 75.6999 15.4C75.6999 14.1 74.4999 13.4 73.1999 13.4C72.0999 13.4 70.6999 14 70.6999 15.3C70.6999 16.4 71.7999 17 73.7999 17.4C75.5999 17.8 77.3999 18.3 77.3999 20.5C77.3999 22.6 75.2999 23.9 73.3999 23.9C72.2999 23.9 71.0999 23.5 70.4999 22.7V23.3C70.4999 23.7 70.0999 23.9 69.7999 23.9C69.4999 23.9 69.0999 23.7 69.0999 23.3V20.5C69.0999 20.1 69.4999 19.8 69.7999 19.8C70.1999 19.8 70.5999 20.1 70.5999 20.5C70.5999 22 72.0999 22.6 73.3999 22.6C74.4999 22.6 75.9999 21.8 75.9999 20.5C75.9999 19.2 74.4999 18.9 73.3999 18.7C70.5999 18.1 69.2999 17.1 69.2999 15.3C69.2999 13.3 71.1999 12.2 72.9999 12.2C74.0999 12.2 75.0999 12.7 75.6999 13.3V12.8C75.6999 12.3 75.9999 12.2 76.3999 12.2Z" fill="#0C9AFC"/>
<path d="M90.0999 12.3C90.9999 12.3 90.9999 13.7 90.0999 13.7H89.7999V27H90.0999C90.9999 27 90.9999 28.4 90.0999 28.4H88.9999C88.6999 28.4 88.4999 28.2 88.4999 27.8V21.5C88.4999 21.5 87.2999 23.8 84.1999 23.8C80.9999 23.8 78.5999 21.1 78.5999 18C78.5999 14.8 81.0999 12.1 84.3999 12.1C86.0999 12.1 87.5999 13 88.5999 14.3V12.8C88.5999 12.5 88.7999 12.3 89.0999 12.3H90.0999ZM84.1999 13.5C81.4999 13.5 79.7999 15.6 79.8999 18C79.8999 20.4 81.7999 22.4 84.1999 22.4C86.6999 22.4 88.3999 20.2 88.3999 17.9C88.3999 14.6 85.6999 13.5 84.1999 13.5Z" fill="#0C9AFC"/>
<path d="M101 13.6C100.1 13.6 100.1 12.2 101 12.2H102.3C102.6 12.2 102.9 12.4 102.9 12.7V22.4H103.4C104.3 22.4 104.3 23.8 103.4 23.8H102C101.7 23.8 101.4 23.6 101.4 23.2V22C100.5 23.3 99.0001 23.8 97.5001 23.8C94.2001 23.8 92.6 21.6 92.6 18.7V13.6H92.1C91.2 13.6 91.2 12.2 92.1 12.2H93.4001C93.7001 12.2 94.0001 12.4 94.0001 12.7V18.7C94.0001 20.8 95.1 22.4 97.6 22.4C99.8 22.4 101.5 21.2 101.5 18.5V13.6H101Z" fill="#0C9AFC"/>
<path d="M115.3 23.9C115 23.9 114.8 23.7 114.8 23.4V22C113.9 23.3 112.3 24.1 110.6 24.1C107.3 24.1 104.8 21.4 104.8 18.2C104.8 15 107.3 12.4 110.4 12.4C113.5 12.4 114.7 14.7 114.7 14.7V13C114.7 12.7 114.9 12.4 115.2 12.4H116.4C117.3 12.4 117.3 13.8 116.4 13.8H116.1V22.6H116.4C117.3 22.6 117.3 24 116.4 24H115.3V23.9ZM110.5 13.6C108.1 13.6 106.2 15.6 106.2 18C106.2 20.4 107.8 22.5 110.5 22.5C111.9 22.5 114.8 21.4 114.8 18.1C114.9 15.8 113.1 13.6 110.5 13.6Z" fill="#0C9AFC"/>
<path d="M120.5 23.3C120.5 23.6 120.3 23.8 120 23.8H118.9C118 23.8 118 22.4 118.9 22.4H119.2V13.6H118.9C118 13.6 118 12.2 118.9 12.2H120C120.3 12.2 120.5 12.4 120.5 12.8V14.2C121.5 12.7 122.9 12.2 124.6 12.2C125 12.2 125.3 12.4 125.3 12.9C125.3 13.6 124.6 13.6 124.6 13.6H124.5C122.7 13.6 120.5 14.6 120.5 17V23.3Z" fill="#0C9AFC"/>
<path d="M130.9 24C127.5 24 125 21.4 125 18.1C125 14.9 127.5 12.2 130.7 12.2C133.8 12.2 135.8 14.8 135.9 18C135.9 18.4 135.7 18.8 135.2 18.8H126.4C126.8 21 128.7 22.6 130.9 22.6C131.7 22.6 132.9 22.4 133.6 22C134.1 21.7 134.4 22 134.6 22.2C134.8 22.5 134.7 22.9 134.3 23.2C133.4 23.7 131.9 24 130.9 24ZM126.4 17.4H134.4C134 15.2 132.8 13.5 130.6 13.5C128.5 13.5 126.7 15.3 126.4 17.4Z" fill="#0C9AFC"/>
<path d="M146.7 23.9C146.4 23.9 146.2 23.7 146.2 23.4V22C145.3 23.3 143.7 24.1 142 24.1C138.7 24.1 136.2 21.4 136.2 18.2C136.2 15 138.7 12.4 141.8 12.4C144.9 12.4 146.1 14.7 146.1 14.7V8.4H145.8C144.9 8.4 144.9 7 145.8 7H147C147.3 7 147.5 7.2 147.5 7.6V22.5H147.8C148.7 22.5 148.7 23.9 147.8 23.9H146.7ZM141.9 13.6C139.5 13.6 137.6 15.6 137.6 18C137.6 20.4 139.2 22.5 141.9 22.5C143.3 22.5 146.1 21.4 146.1 18.1C146.1 15.8 144.4 13.6 141.9 13.6Z" fill="#0C9AFC"/>
<path d="M13.1 23.9H2V12.7L13.1 23.9Z" fill="#0C293D"/>
</svg>
